<?xml version="1.0" encoding="UTF-8" standalone="no"?>
<!-- Created with Inkscape (http://www.inkscape.org/) -->

<svg
        xmlns:dc="http://purl.org/dc/elements/1.1/"
        xmlns:cc="http://creativecommons.org/ns#"
        xmlns:rdf="http://www.w3.org/1999/02/22-rdf-syntax-ns#"
        xmlns:svg="http://www.w3.org/2000/svg"
        xmlns="http://www.w3.org/2000/svg"
        xmlns:sodipodi="http://sodipodi.sourceforge.net/DTD/sodipodi-0.dtd"
        xmlns:inkscape="http://www.inkscape.org/namespaces/inkscape"
        version="1.0"
        width="164.38354"
        height="202.67128"
        id="svg2780"
        inkscape:version="0.47 r22583"
        sodipodi:docname="12065742761939922523wipp_Eglisau_-_Coat_of_arms_1.svg">
    <metadata
            id="metadata27">
        <rdf:RDF>
            <cc:Work
                    rdf:about="">
                <dc:format>image/svg+xml</dc:format>
                <dc:type
                        rdf:resource="http://purl.org/dc/dcmitype/StillImage" />
            </cc:Work>
        </rdf:RDF>
    </metadata>
    <sodipodi:namedview
            pagecolor="#ffffff"
            bordercolor="#666666"
            borderopacity="1"
            objecttolerance="10"
            gridtolerance="10"
            guidetolerance="10"
            inkscape:pageopacity="0"
            inkscape:pageshadow="2"
            inkscape:window-width="1280"
            inkscape:window-height="725"
            id="namedview25"
            showgrid="false"
            inkscape:zoom="1.3861215"
            inkscape:cx="106.19123"
            inkscape:cy="105.19505"
            inkscape:window-x="0"
            inkscape:window-y="24"
            inkscape:window-maximized="1"
            inkscape:current-layer="svg2780" />
    <defs
            id="defs2782">
        <inkscape:perspective
                sodipodi:type="inkscape:persp3d"
                inkscape:vp_x="0 : 120.39146 : 1"
                inkscape:vp_y="0 : 1000 : 0"
                inkscape:vp_z="205.56123 : 120.39146 : 1"
                inkscape:persp3d-origin="102.78062 : 80.260976 : 1"
                id="perspective29" />
    </defs>
    <g
            id="g2857"
            transform="translate(-21.303607,-3.1000738)">
        <path
                d="m 43.608588,39.242467 c -3.587572,-2.760503 -6.350216,-5.432906 -8.545812,-8.457712 5.584324,-0.885424 13.285119,0.06493 19.294154,3.524047"
                style="fill:#000000;fill-opacity:1;fill-rule:evenodd;stroke:#ffffff;stroke-width:1px;stroke-linecap:butt;stroke-linejoin:miter;stroke-opacity:1"
                id="path6083" />
        <path
                d="m 122.53632,123.17965 c 6.32085,7.58216 9.82466,12.06923 16.65129,17.641 5.85772,4.78096 -19.99696,21.54336 -23.41922,22.24001 -3.34667,0.68127 -6.62988,7.69532 -9.75481,10.38846 -3.25805,2.80787 -1.95381,2.19202 -5.5942,8.40196 -3.671846,6.26362 9.65334,5.67157 12.00636,2.80157 2.30956,-2.817 2.36555,-5.93382 1.08744,-7.65701 -1.21773,-1.64178 1.8798,-5.97593 3.69248,-4.30659 1.74934,1.61101 3.95935,3.05683 5.57022,-1.76202 1.57346,-4.70693 26.81288,-24.15133 30.63131,-25.74559 3.77265,-1.57514 -3.99272,-20.03211 -5.73392,-20.06586"
                style="color:#000000;fill:#000000;fill-opacity:1;fill-rule:evenodd;stroke:#ffffff;stroke-width:1px;stroke-linecap:butt;stroke-linejoin:miter;stroke-miterlimit:4;stroke-opacity:1;stroke-dashoffset:0;marker:none;visibility:visible;display:inline;overflow:visible;enable-background:accumulate"
                id="path2188" />
        <path
                d="m 45.335302,121.76148 c 0.623104,12.15211 3.631205,15.88929 3.987003,22.42689 0.355366,6.52966 2.865908,13.68964 3.114846,18.06611 0.24944,4.38529 1.306453,9.01204 -0.622969,19.06286 -1.952486,10.17092 -6.935725,4.36075 -7.974007,17.94152 -1.038282,13.7053 12.015462,0.3028 10.839666,-4.1116 -1.183641,-4.4439 0.883075,-8.15402 3.114847,-8.72156 2.348599,-0.59725 3.488628,-2.61648 2.491877,-8.3478 -0.975727,-5.61043 -2.221925,-42.50727 0.373781,-50.46052"
                style="color:#000000;fill:#000000;fill-opacity:1;fill-rule:evenodd;stroke:#ffffff;stroke-width:1px;stroke-linecap:butt;stroke-linejoin:miter;stroke-miterlimit:4;stroke-opacity:1;stroke-dasharray:none;stroke-dashoffset:0;marker:none;visibility:visible;display:inline;overflow:visible;enable-background:accumulate"
                id="path2196" />
        <path
                sodipodi:nodetypes="cscssssssssssssscsssc"
                d="m 38.932444,117.53307 c 4.67346,14.84563 20.589966,15.21926 40.974936,14.52614 20.38497,-0.69313 43.16871,-4.25301 56.6949,-8.47554 -6.32085,-7.58216 -6.61357,-8.03557 -9.43601,-11.60831 2.82244,3.57274 3.11516,4.02615 9.43601,11.60831 6.32085,7.58216 18.92674,21.48792 25.49745,27.35932 6.60528,5.9023 3.01181,21.38577 0.25361,27.59754 -2.72485,6.1367 -6.62988,10.68557 -8.50887,11.13603 -1.79579,0.4305 -3.28713,2.9684 -2.97773,7.4052 0.31515,4.5193 8.15821,4.924 10.51123,2.054 2.30956,-2.817 1.12898,-9.1937 1.83501,-10.89644 0.70603,-1.70277 1.73698,-2.1407 3.1941,-0.81796 1.50016,1.36183 4.45773,1.93549 4.57347,-3.25715 0.11384,-5.10733 1.63987,-26.63789 3.34525,-33.09662 1.69978,-6.43751 -0.006,-6.32679 -1.74691,-6.36054 -1.8293,-0.0337 -9.54798,-5.76819 -8.0621,-19.84692 1.48495,-14.0698 0.39516,-21.48282 0.48326,-23.77345 6.05401,9.86675 11.84679,1.36052 4.23619,-2.64045 -7.54166,-3.96473 -10.9557,-5.14606 -14.65932,-8.15021 -3.6609,-2.9695 -19.51207,-7.42173 -32.84743,-5.29341 -13.32192,2.12618 -29.683196,0.654635 -41.792629,-0.284245"
                style="color:#000000;fill:#000000;fill-opacity:1;fill-rule:evenodd;stroke:#ffffff;stroke-width:1px;stroke-linecap:butt;stroke-linejoin:round;stroke-miterlimit:4;stroke-opacity:1;stroke-dashoffset:0;marker:none;visibility:visible;display:inline;overflow:visible;enable-background:accumulate"
                id="path10932" />
        <path
                d="M 80.027041,84.74091 C 80.769754,77.21306 81.402664,61.5647 78.806968,51.69309 L 88.569514,52.00378 72.070299,42.9525 53.08637,56.43672 c -0.277935,10.37459 -5.577749,8.33435 -12.300893,19.61986 2.717194,-1.25392 3.567031,-2.69916 6.597973,-3.52587 -3.763143,4.04839 -8.697686,9.28973 -10.246928,13.7809 2.27387,-2.19219 4.657773,-3.55511 6.7583,-4.06258 -8.191312,10.40508 -9.826995,15.06325 -9.162076,17.07821 2.168064,-2.83407 4.155598,-5.1186 6.919387,-5.86476 -5.96595,7.24421 -8.279946,13.22711 -6.728069,16.24254 2.099039,-5.32423 4.62655,-7.30849 7.226444,-8.51772 -3.60731,4.71549 -8.279557,10.76616 -3.649715,21.19866 0.532233,-1.77739 0.808933,-3.41366 1.552996,-4.47911"
                style="color:#000000;fill:#000000;fill-opacity:1;fill-rule:evenodd;stroke:#ffffff;stroke-width:1px;marker:none;visibility:visible;display:inline;overflow:visible;enable-background:accumulate"
                id="path3811" />
        <path
                d="m 86.337654,51.224225 c -4.05705,-2.406175 -6.581057,-5.483057 -17.796437,-4.757463 -2.897581,17.211723 -15.195989,13.042822 -28.016169,8.457712 -2.891658,-1.034196 -3.827172,0.252919 -5.374171,1.057214 -1.584575,0.82383 -4.135495,0.568993 -5.634611,0.427977 -1.699624,-0.159877 -1.433369,-2.173531 2.727273,-3.159114 4.179566,-0.990067 1.908858,-1.086581 0.969112,-1.938225 -0.989091,-0.896363 -3.519617,-2.180357 -5.814677,-0.176203 -2.338164,2.041796 -7.268345,-2.466832 -5.021765,-4.757462 2.290198,-2.335104 6.276752,-3.324074 10.572139,-4.581261 4.214172,-1.233417 10.791905,-5.95832 14.889096,-7.488599 2.37514,-0.887102 3.910412,-1.199411 5.113086,-1.395732 l 2.390319,-0.390189 -2.390319,0.390189 c -3.052743,-3.506457 8.493955,-5.987309 13.564361,-3.185528 3.28911,4.082021 8.384831,9.036198 9.431251,11.996874 -0.995781,0.274128 -2.926017,0.548255 -3.921798,0.573194 9.87701,0.573392 17.47689,7.45409 19.96371,12.78996 -3.96741,0.108618 -14.32028,-0.928162 -17.754628,-4.609973"
                style="color:#000000;fill:#000000;fill-opacity:1;fill-rule:evenodd;stroke:#ffffff;stroke-width:1px;stroke-linecap:round;stroke-linejoin:round;stroke-miterlimit:4;stroke-opacity:1;stroke-dasharray:none;stroke-dashoffset:0;marker:none;visibility:visible;display:inline;overflow:visible;enable-background:accumulate"
                id="path2174" />
        <path
                d="m 24.395883,48.546391 c -0.0623,-1.370532 0.249188,-2.616471 1.931205,-2.42958"
                style="color:#000000;fill:#000000;fill-opacity:1;fill-rule:evenodd;stroke:#ffffff;stroke-width:1px;stroke-linecap:round;stroke-linejoin:miter;stroke-miterlimit:4;stroke-opacity:1;stroke-dasharray:none;stroke-dashoffset:0;marker:none;visibility:visible;display:inline;overflow:visible;enable-background:accumulate"
                id="path2176" />
        <path
                d="m 53.363957,41.506839 a 2.3672835,2.3049867 0 1 1 -4.734567,0 2.3672835,2.3049867 0 1 1 4.734567,0 z"
                style="color:#000000;fill:#000000;fill-opacity:1;fill-rule:evenodd;stroke:#ffffff;stroke-width:1px;stroke-linecap:butt;stroke-linejoin:miter;stroke-miterlimit:4;stroke-opacity:1;stroke-dasharray:none;stroke-dashoffset:0;marker:none;visibility:visible;display:inline;overflow:visible;enable-background:accumulate"
                id="path2178" />
        <path
                d="m 46.698184,40.510087 c 3.052549,-2.055798 5.046051,-0.622969 7.039553,-1.61972"
                style="color:#000000;fill:#000000;fill-opacity:1;fill-rule:evenodd;stroke:#ffffff;stroke-width:1px;stroke-linecap:round;stroke-linejoin:miter;stroke-miterlimit:4;stroke-opacity:1;stroke-dasharray:none;stroke-dashoffset:0;marker:none;visibility:visible;display:inline;overflow:visible;enable-background:accumulate"
                id="path2180" />
        <path
                d="m 154.61605,193.86001 c -0.61671,1.40961 -1.05722,6.25518 -0.96911,7.6648"
                style="color:#000000;fill:#000000;fill-opacity:1;fill-rule:evenodd;stroke:#ffffff;stroke-width:1px;stroke-linecap:round;stroke-linejoin:miter;stroke-miterlimit:4;stroke-opacity:1;stroke-dasharray:none;stroke-dashoffset:0;marker:none;visibility:visible;display:inline;overflow:visible;enable-background:accumulate"
                id="path2182" />
        <path
                d="m 34.6535,5.851618 c 5.956683,7.69092 6.768361,14.232555 12.936383,18.491499 6.208927,4.287188 12.009877,4.763576 18.948195,4.096482 6.85103,-0.658701 5.507552,-0.962387 7.074213,-0.938881 1.474854,0.02213 6.132325,1.881225 14.643363,2.610104 8.5031,0.7282 13.897666,-0.95023 15.678296,-0.835558 1.69287,0.10902 4.91519,1.170585 13.86014,1.209445 8.945,0.03886 4.80958,-0.909292 17.96416,-1.03906 19.92552,-0.197431 27.69873,-14.692443 32.60583,-19.087275 -8.80585,0.303093 -18.12429,13.586381 -26.32946,13.243442 -8.29327,-0.342939 -1.02468,-6.383 5.11461,-17.503604 C 123.2428,19.826581 143.00119,24.773073 113.22536,25.169928 104.61,25.284754 112.21593,16.010593 121.0059,5.6603 114.63145,6.344658 105.41198,13.886107 101.70637,24.188292 69.455999,25.504159 75.757434,24.999505 83.618884,3.6000738 67.070059,12.91453 78.695281,24.531231 61.724266,24.495349 44.841352,24.459468 43.412785,8.013542 34.6535,5.851618 z"
                style="color:#000000;fill:#000000;fill-opacity:1;fill-rule:evenodd;stroke:#ffffff;stroke-width:1px;stroke-linecap:butt;stroke-linejoin:round;stroke-miterlimit:4;stroke-opacity:1;stroke-dasharray:none;stroke-dashoffset:0;marker:none;visibility:visible;display:inline;overflow:visible;enable-background:accumulate"
                id="path2184" />
        <path
                d="m 59.378697,36.511331 c -0.05873,-1.644555 0.411138,-3.377212 2.378731,-4.052654 -9.57366,-2.672402 -8.310877,-21.819721 -14.977198,-26.782753 8.663281,0.528607 9.962898,10.238972 12.246062,14.536692 2.246579,4.228855 2.311925,7.558021 15.1534,11.629352 12.921502,4.096705 10.865812,-13.127073 25.901738,-20.351368 -2.584296,10.660241 -19.784762,19.335141 -0.352406,29.073384 19.396946,9.720495 13.068336,-6.137715 35.240466,-18.413143 -6.81316,12.774669 -22.9944,25.02073 -2.11443,29.425788 20.96808,4.405059 9.66176,-12.598466 32.33313,-16.122512 -5.40517,5.502352 -20.48553,16.872795 -7.94396,17.867643 12.54821,0.995375 21.39244,-11.190609 27.94292,-9.409932 -5.35616,4.347069 -14.1796,13.606867 -23.78731,14.272388 -9.69582,0.665521 -10.45467,-0.881011 -12.68656,-0.969113 -2.31987,-0.09157 -7.26836,0.587341 -12.77468,0.440506 -5.50468,-0.146791 -11.77619,-4.052653 -17.97263,-6.519485 -15.39028,-0.362456 -24.568966,-7.26163 -32.509326,-13.038973 -5.550374,1.41036 -11.100749,1.609189 -16.651123,-0.264303 -1.106139,0.08812 -1.107197,1.005043 -1.321518,1.762023"
                style="color:#000000;fill:#000000;fill-opacity:1;fill-rule:evenodd;stroke:#ffffff;stroke-width:1px;stroke-linecap:butt;stroke-linejoin:round;stroke-miterlimit:4;stroke-opacity:1;stroke-dasharray:none;stroke-dashoffset:0;marker:none;visibility:visible;display:inline;overflow:visible;enable-background:accumulate"
                id="path2186" />
        <path
                d="m 105.56878,179.93061 c -1.74432,3.23945 -0.87216,5.48213 -0.99675,8.09861"
                style="color:#000000;fill:#000000;fill-opacity:1;fill-rule:evenodd;stroke:#ffffff;stroke-width:1px;stroke-linecap:round;stroke-linejoin:miter;stroke-miterlimit:4;stroke-opacity:1;stroke-dasharray:none;stroke-dashoffset:0;marker:none;visibility:visible;display:inline;overflow:visible;enable-background:accumulate"
                id="path2190" />
        <path
                d="m 54.609894,119.87638 c 1.12148,9.66023 4.75255,19.00413 5.108348,25.54173 0.355366,6.52966 3.738065,13.19127 4.111597,20.80718 0.373782,7.621 3.011018,12.93699 -1.868908,18.1907 -4.818144,5.1872 -5.440598,11.33805 -5.606723,13.70533 -0.157425,2.24332 9.897366,4.78816 8.72157,0.37378 -1.183641,-4.44385 -0.228422,-7.76634 2.990253,-7.35103 3.096162,0.3995 4.609973,-1.74432 3.114846,-8.3478 -1.468305,-6.48501 -0.477611,-43.62861 2.118095,-51.58186 2.632482,-8.06593 0.04153,-5.73131 0.124594,-8.22319"
                style="color:#000000;fill:#000000;fill-opacity:1;fill-rule:evenodd;stroke:#ffffff;stroke-width:1px;stroke-linecap:round;stroke-linejoin:miter;stroke-miterlimit:4;stroke-opacity:1;stroke-dasharray:none;stroke-dashoffset:0;marker:none;visibility:visible;display:inline;overflow:visible;enable-background:accumulate"
                id="path2194" />
        <path
                d="m 47.632638,194.00972 c -1.245939,2.1181 -1.744315,6.85266 -1.370533,7.60023"
                style="color:#000000;fill:#000000;fill-opacity:1;fill-rule:evenodd;stroke:#ffffff;stroke-width:1px;stroke-linecap:round;stroke-linejoin:miter;stroke-miterlimit:4;stroke-opacity:1;stroke-dasharray:none;stroke-dashoffset:0;marker:none;visibility:visible;display:inline;overflow:visible;enable-background:accumulate"
                id="path2198" />
        <path
                d="m 58.846085,196.62619 -0.498376,3.48863"
                style="color:#000000;fill:#000000;fill-opacity:1;fill-rule:evenodd;stroke:#ffffff;stroke-width:1px;stroke-linecap:round;stroke-linejoin:miter;stroke-miterlimit:4;stroke-opacity:1;stroke-dasharray:none;stroke-dashoffset:0;marker:none;visibility:visible;display:inline;overflow:visible;enable-background:accumulate"
                id="path2200" />
    </g>
</svg>